<svg id="Layer_1" data-name="Layer 1" xmlns="http://www.w3.org/2000/svg" viewBox="0 0 295.89 295.89"><defs><style>.cls-1{fill:#fff}.cls-2,.cls-4{fill:#d4d5d6}.cls-2{opacity:.5;isolation:isolate}.cls-3{fill:#b4a76c}.cls-5{fill:#00d1c1}.cls-6{fill:#ffaa91}.cls-7{fill:#565a5c}.cls-10,.cls-8,.cls-9{fill:none;stroke-linecap:round;stroke-width:2px}.cls-8{stroke:#d4d5d6}.cls-10,.cls-8{stroke-linejoin:round}.cls-10,.cls-9{stroke:#565a5c}.cls-9{stroke-miterlimit:10}</style></defs><title>start_wish_listing_illustration</title><path class="cls-1" d="M-4.5-2.5H299V301H-4.5z"/><g id="Color"><path class="cls-2" d="M127 28.62a11.39 11.39 0 0 0-3.46 1.77 12.16 12.16 0 0 0-4.23 8.05c-.58 4.24-.27 9.75 2.36 13.32 6.94 9.43 23.67 6.46 33.33 4.79 3.47-.6 7.22-1.35 9.61-4.18 3.94-4.66 3.2-14.29-1-18.55a15.47 15.47 0 0 0-6.79-3.48 66.74 66.74 0 0 0-17.93-2.71c-3.63-.05-8.11-.23-11.89.99z"/><path class="cls-3" d="M203.59 152.61a1 1 0 0 1-1-1c0-14-10.63-18.07-11.08-18.24a1 1 0 0 1 .69-1.88 19 19 0 0 1 6.23 4.24c2.81 2.81 6.16 7.84 6.16 15.87a1 1 0 0 1-1 1zm3.73 0a1 1 0 0 1-1-.84c-.12-.76-2.82-18.77 8-29.68a1 1 0 1 1 1.42 1.41c-10.1 10.18-7.48 27.78-7.45 28a1 1 0 0 1-.83 1.14zm3.11 0h-.22a1 1 0 0 1-.76-1.19 1.67 1.67 0 0 1 .08-.54c1.82-13.68 10.38-16.55 17.24-16.55a1 1 0 0 1 0 2c-8.82 0-14 5-15.26 14.82a2.83 2.83 0 0 1-.11.71 1 1 0 0 1-.97.75z"/><path class="cls-4" d="M92.53 130c2.23-2.58 6.11-2.89 9.49-2.51 2 .23 4.21.63 6.1-.19 2.51-1.08 3.69-3.9 4.64-6.47a12.5 12.5 0 0 0 1.08-4.75c-.06-1.51-.65-3.12 0-4.47s2.32-2.36 1.78-3.69a3.27 3.27 0 0 1-3.68-2.81v-.27c0-.61.13-1.36-.35-1.74s-1.46.13-1.79.8-.48 1.5-1.08 1.94c-1.23.9-2.86-.57-4.38-.51a3.94 3.94 0 0 0-2.23 1.08A19.9 19.9 0 0 0 95 122.55c.11 2.14.23 5.49-2.62 5.68-2.51.17-4.22-3.88-6.78-1.49-1.69 1.58-.28 4.76 1.41 5.92 2.79 1.88 3.83-1.01 5.52-2.66zm-7.76 37.91l6.68 9.18a8.77 8.77 0 0 0 1.62 1.84c2.27 1.77 12.22 1.07 12.22 1.07a167.6 167.6 0 0 0 22.06-2.73c2.63-.52 5.18-2.34 7.73-1.51 1.35.44 2.59 1.5 4 1.31a11.92 11.92 0 0 0 2.41-1c3.16-1.17 6.4 1.87 9.77 1.79a2.44 2.44 0 0 0 1.25-.31c1.09-.68.94-2.28.66-3.53a20 20 0 0 0-2.16-6.27 6.78 6.78 0 0 0-5.38-3.46 11.23 11.23 0 0 0-4.16 1.11c-1.93.76-4.24 2.78-6.28 3-11.28 1.19-19.74 0-31.23.83a7.85 7.85 0 0 1-3.31-.47A7.63 7.63 0 0 1 96.5 164a63.1 63.1 0 0 1-1.5-6.39 23.42 23.42 0 0 0-2.32-5.92 6 6 0 0 0-1.68-2.12 6.82 6.82 0 0 0-2.6-.9c-3.25-.65-14.6-6.47-13.8.07.79 6.05 6.72 14.44 10.17 19.17z"/><path class="cls-5" d="M51.83 195a96.24 96.24 0 0 0-2.64 16.68c-.76 8.91 2.7 14.58 11.6 16.53a62 62 0 0 0 13.9 1.89 66.78 66.78 0 0 0 10-1.13l16.12-2.64c2.16-.36 13.44-3.6 14.83-2 1 1.11-2.32 11.62-2.42 13.8-.37 8.06 1.26 23.14 11.22 25.3a5.44 5.44 0 0 0 4-.49c3-1.89 2.79-10.73 3.38-14 1.78-9.76 4.17-19.26 4.66-29.2.15-3.28-.07-6.73-1.76-9.55-3-5-9.6-6.43-15.42-7.34L86 197.68a13.09 13.09 0 0 0 2-4.27 4.44 4.44 0 0 0-1.28-4.31 6.57 6.57 0 0 0-3.25-1.1l-10.14-1.47c-4.9-.71-10.13-1.61-15.08-.87-3.04.49-5.06 4.51-6.42 9.34z"/><rect class="cls-6" x="201.73" y="151.61" width="15.45" height="8.27" rx="4.13" ry="4.13"/><path class="cls-4" d="M169.93 192.43h19.9a2.88 2.88 0 0 1 2.88 2.88 2.88 2.88 0 0 1-2.88 2.88h-19.9a2.88 2.88 0 0 1-2.88-2.88 2.88 2.88 0 0 1 2.88-2.88z"/><path class="cls-7" d="M120.38 97.89a9 9 0 0 0-3-4.76A27 27 0 0 0 112.6 90l-3.6-2a27 27 0 0 0-6.27-2.85A13.82 13.82 0 0 0 88.8 89.7a27.06 27.06 0 0 0-2.56 4.11c-1.63 3-4.4 7-6.89 13.42-1.74 4.53-1.79 7.47-.51 10.4.88 2 4.58 5 4.58 5a9.62 9.62 0 0 1 4.58-3 22.65 22.65 0 0 0-1.12 4.23 2.42 2.42 0 0 0 0 1.16 2.31 2.31 0 0 0 .6.85 11.88 11.88 0 0 0 9.52 3.4c-2-3.27-2-7.55-.85-11.22s3.62-6.85 6.08-9.85l2.66-3.08a5.18 5.18 0 0 0 3.47 1.11 4.8 4.8 0 0 0 2.31-1.15 12.86 12.86 0 0 0 2.29-2.39l.26 3.4a.67.67 0 0 0 .57.76h.21l2.47.37a1.54 1.54 0 0 0 2-1.14c1.28-2.56 2.53-5.39 1.91-8.19z"/><path class="cls-2" d="M230.43 108.74h33.38a7.77 7.77 0 0 0 7.77-7.77v-43.6a7.77 7.77 0 0 0-7.77-7.77H210q-.26.4-.5.81c-3.19 5.51-1.68 13.66 3.35 17.57 5.34 4.15 12.59 2.34 18.17 6a7.89 7.89 0 0 1 3.43 4.53c1.29 5-3.47 8.67-5.9 12.92a14.74 14.74 0 0 0-.43 13.59 14.14 14.14 0 0 0 2.32 3.36"/><path class="cls-8" d="M177.15 201.87v60.42"/><path class="cls-9" d="M171.26 163.45q3.21-.09 6.51-.09c5.92 0 11.62.22 17 .64"/><path class="cls-10" d="M214.58 166.68c12.83 2.67 21 6.7 21 11.21 0 8-25.88 14.54-57.81 14.54-24.25 0-45-3.76-53.6-9.08"/><path class="cls-9" d="M164.17 192.43v4a5.44 5.44 0 0 0 5.44 5.44h15.07a5.44 5.44 0 0 0 5.44-5.44v-4M32.23 232.29h68.79m-63.23 37.37v-37.37m58.57 37.37v-37.37m-58.57 12.19h48.54m-48.54-19.97l-12.98-80.57"/><path class="cls-10" d="M197.75 151.61h15.45v12.31a7.73 7.73 0 0 1-7.73 7.73 7.73 7.73 0 0 1-7.73-7.73v-12.31z"/><path class="cls-8" d="M147.64 175.92h15.8l9.32-35.83"/><path class="cls-9" d="M109.29 120c-1 3.19-2.29 6-4.42 7.39-3.45 2.21-7.48.93-11.24-.39m20.13-19.41a11.57 11.57 0 0 1-2.44 5.38m0 .03l.82 4.53a1.71 1.71 0 0 1-1.83 2.13l-2.53-.25m-.19-5.81l.22-.63m1.74-3.6a7.37 7.37 0 0 0-4.38-.15m-4.68 11.7a3.21 3.21 0 0 0 2.36 1.78"/><path class="cls-10" d="M105.07 102.1a46.66 46.66 0 0 0-5.77 6.1c-2.46 3-4.83 6.18-6.08 9.85s-1.25 8 .85 11.22a11.88 11.88 0 0 1-9.57-3.36 2.31 2.31 0 0 1-.6-.85 2.42 2.42 0 0 1 0-1.16 22.63 22.63 0 0 1 1.1-4.23 9.62 9.62 0 0 0-4.56 2.94s-3.71-3-4.58-5c-1.28-2.93-1.23-5.88.51-10.4 2.48-6.47 5.26-10.42 6.89-13.42a27 27 0 0 1 2.56-4.11 13.82 13.82 0 0 1 13.92-4.59A27 27 0 0 1 106 88l3.6 2a27 27 0 0 1 4.77 3.14 9 9 0 0 1 3 4.76c.59 2.8-.63 5.64-1.91 8.19a1.54 1.54 0 0 1-1.83 1.19h-.17l-2.47-.37a.67.67 0 0 1-.73-.76l-.26-3.4a12.86 12.86 0 0 1-2.29 2.39 4.81 4.81 0 0 1-2.31 1.15 5.18 5.18 0 0 1-3.47-1.11m-28.75 18.19a17.4 17.4 0 0 0-13.44 10.83c-3.73 9.72-8 41.59-8 41.59l-2.38 6.58a3.31 3.31 0 0 0 4.14 4.26 15 15 0 0 0 1.73-.66c3.73-1.72 26.89 3.7 26.89 3.7l5.23-11.74"/><path class="cls-10" d="M64.47 137.2l2.74 13.94s3.48-5.87 8.34-5.8 13.9 4.94 13.9 4.94l-4.07-10.51M67.2 151.14s2.74 3.38 6.72 2.43"/><path class="cls-10" d="M71.38 146.71s4.44 11.55 6.59 15.85C80.53 167.68 89.45 180 89.45 180a110.55 110.55 0 0 0 16.55 0c6.79-.75 25.67-4.49 25.67-4.49m-49.53 14.16l-1.74 8.52s-4.92-1.34-13 .71"/><path class="cls-10" d="M50.3 185.95c-3.47 10.75-11.82 32-1.42 40.9a16.21 16.21 0 0 0 8.25 3.43c10.93 1.58 23-.32 33.87-1.86 6.21-.88 12.4-1.91 18.54-3.18m.88 30.95s-4.08-22.84-.87-31"/><path class="cls-10" d="M80.4 198.19s14.44.75 22.53 2.49 22 3.7 26.61 8.7-4.83 52.54-4.83 52.54m-17.35-36.25a40 40 0 0 0 11.37-4.46M90 129.5a7.14 7.14 0 0 0-2.24 4.84m-5.54-6.68a17.76 17.76 0 0 0 8.36 9.22m2.78 1.02c.7 3.1 1.71 6.16 2.53 9.24 1.41 5.29 2.25 11.07.12 16.11"/><path class="cls-10" d="M89.45 150.28l6.81 18 36 .61 7.47-3.34a7.57 7.57 0 0 1 2.4-.75 6 6 0 0 1 4.57 2.2 13.77 13.77 0 0 1 3.82 8.75 1.5 1.5 0 0 1-.09.72 1.29 1.29 0 0 1-.47.49c-1.51 1-3.55.68-5.25 0s-3.4-1.52-5.22-1.47c-1.57 0-3 .79-4.6 1s-3.48-.42-3.81-2m16.41-6.6a53.33 53.33 0 0 1 7.79-2.28m-70.96-57.98c1.31-6.1 6.08-10.78 10.79-14.87m-5.6 20.47c.08-2.35 1.34-4.48 2.57-6.49m116.58 2.17l56.38-.16v-59h-87v22.12"/><path class="cls-8" d="M196.95 242.58h47.33m-97.33 0h20"/><path class="cls-10" d="M126.67 70.11h-14.55V29.63h43.22v40.48"/></g></svg>